<?xml version="1.0" encoding="UTF-8"?>
<!DOCTYPE svg PUBLIC "-//W3C//DTD SVG 1.1//EN" "http://www.w3.org/Graphics/SVG/1.1/DTD/svg11.dtd">
<!-- Creator: CorelDRAW 2021 (64 Bit) -->
<svg xmlns="http://www.w3.org/2000/svg" xml:space="preserve" width="210mm" height="297mm" version="1.1" style="shape-rendering:geometricPrecision; text-rendering:geometricPrecision; image-rendering:optimizeQuality; fill-rule:evenodd; clip-rule:evenodd"
viewBox="0 0 21000 29700"
 xmlns:xlink="http://www.w3.org/1999/xlink"
 xmlns:xodm="http://www.corel.com/coreldraw/odm/2003">
 <defs>
  <style type="text/css">
   <![CDATA[
    .fil6 {fill:#149CA8}
    .fil5 {fill:#207178}
    .fil2 {fill:#207178}
    .fil4 {fill:#25333A}
    .fil3 {fill:#D5E4EB}
    .fil0 {fill:#DC6378}
    .fil1 {fill:white}
   ]]>
  </style>
 </defs>
 <g id="Camada_x0020_1">
  <metadata id="CorelCorpID_0Corel-Layer"/>
  <g id="_2245488951104">
   <path class="fil0" d="M15672.37 16618.93c1.36,563.03 56.65,1079.48 -173.99,1514.77 -525.46,991.66 -1661.14,786.91 -2683.71,786.91 -571.68,0 -1149.63,8.28 -1720.5,-1.37 -1397.64,-24.93 -2810.5,28.47 -4206.22,-1.88 -686.16,-14.92 -1131.7,-263.99 -1392.47,-699.91 -318.88,-533.06 -226.31,-1125.34 -226.31,-1853.57 0,-705.55 0,-1411.11 0,-2116.66 0,-687.02 -90.58,-1355.86 248.11,-1830.71 610.88,-856.48 1625.57,-663.57 2596.53,-658.5 45.52,0.24 107.76,5.98 141.22,3.4 148.29,-11.41 76.86,-4.49 137.48,-63.29 618.22,-599.7 507.61,-1403.07 1740.99,-1402.26 2616.5,1.73 2189.12,-221.81 3124.63,1037.27 453.33,610.13 147.41,358.29 1013.97,428.88 598.57,48.76 1049.84,396.34 1252.36,829.38 240.72,514.73 147.71,1301.77 147.71,1938.05 0,696.47 -1.2,1393.04 0.2,2089.49zm-6707.09 -10626.33l-419.22 101.13 -526.42 112.9c-6.04,4.98 -14.21,12.28 -18.68,14.23 -5.06,2.21 -19.03,8.7 -24.34,10.75 -30.57,11.82 -28.4,6.76 -69.68,7.93l-348.66 136.42 -74.67 4.7 -489.77 206.96c-181.05,76.98 -411.26,203.04 -570.85,247.33l-99.43 70.17c-153.76,66.25 -260.71,167.66 -429.35,209.97l-61.79 44.04 -44.43 28.59c-84.84,101.52 -194.95,146.15 -302.99,220.26l-40.64 -1.91 -78 65.85 -30.58 34.89 -39.33 -1.7c5.7,49.76 15.46,35.39 -37.62,35.39 -50.23,83.36 -230.43,194.71 -311.1,255.33l-32.54 -1.7c17.62,52.84 20.27,33.25 -42.07,28.48 -22.86,33.63 -16.08,35.11 -63.39,78.75 -89.71,82.76 -48.37,42.66 -106.2,69.16 17.62,52.84 20.27,33.25 -42.08,28.48 5.69,49.7 15.41,35.96 -37.24,33.31 2.78,49.86 14.54,37.36 -35.46,37.36l-99.63 114.22 -32.54 -1.71c14.47,61.51 26.23,49.75 -35.28,35.28 17.62,52.84 20.27,33.26 -42.07,28.48 5.4,52.44 17.16,40.68 -35.28,35.28 -44.93,68.68 -659.63,710.79 -705.55,740.83 4.77,62.35 24.36,59.7 -28.48,42.08 14.46,61.5 26.22,49.74 -35.28,35.28l1.7 32.53c-99.09,112.38 -86.88,157.44 -220.05,240.74l-28.6 44.23c14.47,61.5 26.23,49.74 -35.27,35.27l-70.56 105.84 1.7 32.53c-61.47,86.87 -203.25,328.98 -290.6,381.66l-28.6 44.42 -148.17 279.48 -176.01 275.82 -247.33 535.57 -87.92 180.89 -187.24 421.57 -35.27 105.83 -7.07 67.82 -87.92 251.25 -159.02 595.41 -52.65 180.9 -52.98 321.1 -88.13 525.37 -52.98 815.18 -0.2 309.4 19.67 643.1 15.8 160.18 90.03 721.77 15.61 62.45 7.06 138.37c4.12,7.45 9.42,10.93 10.83,23.14l70.57 292.79 144.64 522.63 157.3 509.43 32.93 30.58 17.91 66.25 96.75 272.94 97.39 231.66c98.6,91.88 195.22,296.89 220.11,438.62l238.5 443.32c111.64,67.32 47.21,11.6 107.42,134.71 100.85,161.09 238.32,341.59 317.88,498.59l41.69 30.58 386.36 526.42c52.84,-17.62 33.25,-20.27 28.48,42.08 52.44,-5.41 40.68,-17.17 35.28,35.27 49.76,-5.69 35.39,-15.46 35.39,37.63l114.22 99.43c150.9,135.17 258.97,296.3 406.27,436.44 82.63,78.63 138.91,111.48 227.35,195.93l211.34 211.55c61.5,-14.46 49.74,-26.22 35.28,35.28 61.5,-14.46 49.74,-26.22 35.27,35.28l32.54 -1.7 28.88 43.66c50.19,0 38.44,-12.59 35.65,37.36 110.75,35.2 369.26,258.73 499.91,342.31l28.88 43.66c107.4,49.87 189.94,115.63 286.26,176.27 91.05,57.31 184.76,106.01 284.59,168.13l99.43 78.94 44.42 28.59 63.76 42.08 321.55 141.37c67.44,34.24 369.3,156.83 415.23,200.76l46.13 39.13 469.46 174.62 88.19 39.79 544.06 159.26 416.8 109.37 674.07 123.54 348.98 52.85c605.16,75.09 1363.42,73.02 1979.36,4.83l133 -22.2 771.8 -123.75 357.09 -90.08 564.58 -143.46 35.14 -32.93 74.68 -2.54 136.99 -68.01 67.81 -4.91 253.81 -103.47 525.05 -244.4c163.92,-74.13 291.45,-165.48 455.86,-216.57l42.14 -32.92 31.16 -32.73c157.55,-78.8 345.91,-229.56 494.02,-284.57l35.15 -41.82 30.77 -6.86c72.27,-77.71 70.17,-72.95 180.9,-134.25l314.75 -207.68 42.14 -32.92c62.91,-104.13 184.94,-179.05 278.11,-253.29l32.53 3.98c36.18,-75.46 -23.9,-0.77 59.85,-79.1 38.99,-36.46 52.84,-39.07 84.14,-59.45l70.42 -77.1 491.15 -454.62c-14.47,-61.5 -26.23,-49.74 35.27,-35.28 -14.46,-61.5 -26.22,-49.74 35.28,-35.28 -14.46,-61.5 -26.22,-49.74 35.28,-35.28l-3.99 -32.53 147.46 -136.99c0,-53.03 -13.18,-41.2 39.52,-35.54 -5.01,-62.28 -24.43,-59.38 28.68,-41.88l-3.99 -32.54 42.07 -35.21 35.02 -35.21c35.72,-54.86 58.18,-81.02 99.3,-141.24 74.66,-96.89 113.6,-179.93 218.01,-243.03l0.26 -39.19 35.21 -35.15c78.71,-139.58 197.24,-288.67 282.29,-423.47l35.02 -31.15 32.92 -42.14c41.82,-154.5 242.61,-429.75 320.12,-596.98l140.85 -242.83 106.09 -251.06c35.64,-146.18 138.02,-367.04 198.2,-462.92l13.47 -66.25 35.21 -35.14 141.18 -494.02 35.02 -31.16c15.97,-195.8 92.73,-313.43 106.09,-498.01 53.53,-132.37 61.9,-350 118.23,-514.32l22.81 -49.99 70.62 -705.69c8.57,-118.91 -7.52,-126.8 52.77,-193.16l-17.49 -653.51 0 -141.11c-0.77,-273.15 -54.94,-636.1 -17.79,-865.18 -108.61,-93.78 -94.22,-429.32 -123.32,-581.21l-114.46 -572.55 -61.93 -168.28 -2.62 -103.09 -81.4 -245.38 -162.92 -427.64c-64.9,-183.44 -174.13,-398.82 -211.74,-564.58l-35.21 -35.14 -0.25 -39.4 -35.02 -31.16 -2.62 -67.81 -32.92 -36.39c-4.21,-5.73 -24.15,-31.95 -29.48,-40.28l-146.91 -318.25 -323.85 -525.05 -28.93 -74.67c-90.65,-58.73 -228.79,-292.91 -288.57,-383.94l3.99 -32.53c-92.79,-67.78 -203.78,-211.04 -240.34,-324.11 -52.71,5.66 -39.52,17.49 -39.52,-35.53l-76.9 -66.44 3.98 -32.53c-61.5,14.46 -49.74,26.22 -35.28,-35.28 -53.1,17.5 -33.68,20.4 -28.67,-41.88 -119.28,-65.48 -287.76,-269.6 -352.78,-388.06 -52.69,5.66 -40.93,17.42 -35.27,-35.28 -52.7,5.66 -40.94,17.42 -35.28,-35.28 -51.07,5.49 -39.59,17.86 -39.33,-31.54l-30.97 -34.77c-66.65,-41.22 -327.96,-278.32 -392.17,-346.43l-66.44 -76.9c-53.03,0 -41.19,13.18 -35.54,-39.52 -52.69,5.66 -40.93,17.41 -35.27,-35.28 -62.29,5.01 -59.39,24.43 -41.89,-28.67l-352.77 -282.22c-60.2,14.15 -46.13,27.01 -46.13,-33.52 -122.83,-36.24 -235.3,-120.19 -299.79,-215.79l-188.61 -99.29c-96.49,-62.5 -378.14,-216.53 -442.4,-280.4 -56.56,-10.81 -45.38,6.66 -39.53,-47.89 -107.71,-19 -153.54,-58.1 -250.8,-101.84l-168.29 -97.21c-67.12,-9.86 -63.73,12.15 -46.12,-41.29 -143.18,0.55 -49.99,5.13 -70.56,-35.27 -188.61,-26.27 -366.05,-168.07 -561.7,-214.29 -89.61,-38.99 -237.24,-77.62 -309.39,-132.48l-195.35 -62.19c-102.78,-19.01 -150.65,-40.21 -252.33,-69.59l-226.59 -88.26c-191.62,-9.67 -365.69,-88.84 -568.56,-108.37l-450.51 -88.32c-501.45,-70.97 -923.08,-84.21 -1454.49,-85.99 -277.62,-0.93 -457.28,19.59 -705.59,32.99 -233.81,12.62 -442.45,69.33 -674.36,73.3z"/>
   <path class="fil1" d="M6776.58 12751.4c844.6,-186.9 1078.65,1052.58 312.66,1260.46 -855.58,232.19 -1187.85,-1066.79 -312.66,-1260.46zm4337.2 6168.54c-92.21,-148.89 -801.17,-817.61 -973.69,-993.8 -102.5,-104.67 -94.34,-61.21 -57.47,-150.44 -687.79,-172.54 -1404.64,-972.97 -1614.39,-1736.1 -762.37,-2773.66 2894.78,-4587.07 4637.78,-2205.91 122.79,167.75 197.44,391.92 298.61,520.24 420.02,364.65 773.6,761.67 1149.46,1137.53 196.76,196.76 367.68,367.68 564.44,564.44 194.36,194.36 364.26,398.23 573.46,563.73 -1.4,-696.45 -0.2,-1393.02 -0.2,-2089.49 0,-636.28 93.01,-1423.32 -147.71,-1938.05 -202.52,-433.04 -653.79,-780.62 -1252.36,-829.38 -866.56,-70.59 -560.64,181.25 -1013.97,-428.88 -935.51,-1259.08 -508.13,-1035.54 -3124.63,-1037.27 -1233.38,-0.81 -1122.77,802.56 -1740.99,1402.26 -60.62,58.8 10.81,51.88 -137.48,63.29 -33.46,2.58 -95.7,-3.16 -141.22,-3.4 -970.96,-5.07 -1985.65,-197.98 -2596.53,658.5 -338.69,474.85 -248.11,1143.69 -248.11,1830.71 0,705.55 0,1411.11 0,2116.66 0,728.23 -92.57,1320.51 226.31,1853.57 260.77,435.92 706.31,684.99 1392.47,699.91 1395.72,30.35 2808.58,-23.05 4206.22,1.88zm2326.12 -4460.18c80.94,-37.21 13.97,-20.86 -12.73,-41.39l12.73 41.39z"/>
   <path class="fil2" d="M10894.01 17290.13c701.28,0 1090.32,-194.94 1508.92,-616.34 798.37,-803.7 672.22,-2207.9 -248,-2913.03 -1188.94,-911.03 -3053.13,-165.63 -3141.69,1473.87 -61.34,1135.67 883.93,2055.5 1880.77,2055.5z"/>
   <path class="fil3" d="M13427.17 14408.37c26.7,20.53 93.67,4.18 12.73,41.39 127.4,636.44 224.69,986.43 27.35,1623.36 -138.31,446.44 -400.46,866.21 -677.98,1118.02 -649.77,589.57 -1577.68,969.4 -2706.65,574.56 -36.87,89.23 -45.03,45.77 57.47,150.44 172.52,176.19 881.48,844.91 973.69,993.8 570.87,9.65 1148.82,1.37 1720.5,1.37 1022.57,0 2158.25,204.75 2683.71,-786.91 230.64,-435.29 175.35,-951.74 173.99,-1514.77 -209.2,-165.5 -379.1,-369.37 -573.46,-563.73 -196.76,-196.76 -367.68,-367.68 -564.44,-564.44 -375.86,-375.86 -729.44,-772.88 -1149.46,-1137.53l22.55 64.44z"/>
   <path class="fil4" d="M10894.01 17300.13c-996.84,0 -1942.11,-919.83 -1880.77,-2055.5 88.56,-1639.5 1952.75,-2384.9 3141.69,-1473.87 920.22,705.13 1046.37,2109.33 248,2913.03 -418.6,421.4 -807.64,616.34 -1508.92,616.34zm-811.39 485.57c1128.97,394.84 2056.88,15.01 2706.65,-574.56 277.52,-251.81 539.67,-671.58 677.98,-1118.02 197.34,-636.93 100.05,-986.92 -27.35,-1623.36l-12.73 -41.39 -22.55 -64.44c-101.17,-128.32 -175.82,-352.49 -298.61,-520.24 -1743,-2381.16 -5400.15,-567.75 -4637.78,2205.91 209.75,763.13 926.6,1563.56 1614.39,1736.1z"/>
   <path class="fil5" d="M6776.58 12761.4c-875.19,193.67 -542.92,1492.65 312.66,1260.46 765.99,-207.88 531.94,-1447.36 -312.66,-1260.46z"/>
   <path class="fil6" d="M12473.76 14069.18c-92.65,-112.73 -198.94,-216.55 -318.83,-308.42 -1188.94,-911.03 -3053.13,-165.63 -3141.69,1473.87 -28.21,522.28 156.57,998.8 461.26,1361.31l2971.93 -2539.9 27.33 13.14z"/>
  </g>
 </g>
</svg>
